<svg width="16" height="16" viewBox="0 0 16 16" fill="none" xmlns="http://www.w3.org/2000/svg">
	<g clip-path="url(#clip0_935_298)">
	<path d="M6.44865 3.64087C6.27527 3.6161 6.26702 3.60785 6.34958 3.59959C6.50644 3.57482 6.8697 3.60785 7.12563 3.66564C7.72006 3.80599 8.2567 4.16925 8.82636 4.80496L8.97496 4.97833L9.18962 4.94531C10.106 4.7967 11.0472 4.91228 11.8315 5.27555C12.0462 5.37462 12.3847 5.57276 12.4259 5.62229C12.4425 5.63881 12.4672 5.74613 12.4837 5.85346C12.5415 6.24149 12.5168 6.53045 12.3929 6.75336C12.3269 6.8772 12.3269 6.91022 12.3682 7.01755C12.4012 7.10011 12.5002 7.1579 12.5911 7.1579C12.7892 7.1579 12.9956 6.84417 13.0947 6.40661L13.136 6.23323L13.2103 6.31579C13.6313 6.78638 13.9615 7.4386 14.0111 7.90093L14.0276 8.02477L13.9533 7.91744C13.8295 7.72756 13.7139 7.60372 13.557 7.49639C13.2763 7.3065 12.9791 7.24871 12.1948 7.20743C11.4848 7.16615 11.0802 7.10836 10.6839 6.97627C10.007 6.75336 9.66021 6.4644 8.85938 5.39938C8.50438 4.9288 8.28147 4.67286 8.05856 4.45821C7.57146 3.98762 7.08435 3.73994 6.44865 3.64087Z" fill="white" fill-opacity="0.9"/>
	<path d="M12.5994 4.68937C12.6159 4.37565 12.6572 4.16925 12.748 3.97936C12.781 3.90506 12.8141 3.83901 12.8223 3.83901C12.8306 3.83901 12.8141 3.8968 12.7893 3.96285C12.7232 4.14448 12.715 4.40042 12.7563 4.68937C12.8141 5.06089 12.8388 5.11043 13.2351 5.51497C13.4167 5.70485 13.6314 5.94428 13.714 6.04335L13.8543 6.22498L13.714 6.09288C13.5406 5.92776 13.1443 5.61404 13.0535 5.57276C12.9957 5.53973 12.9874 5.53973 12.9462 5.58101C12.9131 5.61404 12.9049 5.66357 12.9049 5.903C12.8966 6.27451 12.8471 6.50568 12.7232 6.7451C12.6572 6.86894 12.6489 6.84417 12.7067 6.70382C12.748 6.59649 12.7563 6.54696 12.7563 6.19195C12.7563 5.47369 12.6737 5.30031 12.1701 5.01135C12.0463 4.93705 11.8316 4.82972 11.7078 4.77193C11.5757 4.71414 11.4766 4.66461 11.4849 4.66461C11.5014 4.64809 11.9885 4.78844 12.1784 4.871C12.4673 4.98659 12.5168 4.99484 12.5499 4.98659C12.5746 4.96182 12.5912 4.89577 12.5994 4.68937Z" fill="white" fill-opacity="0.9"/>
	<path d="M6.78774 5.91951C6.44099 5.44066 6.21808 4.69763 6.26761 4.14448L6.28412 3.97111L6.36668 3.98762C6.51529 4.01239 6.77123 4.11146 6.89506 4.18576C7.2253 4.3839 7.37391 4.65635 7.51426 5.33334C7.55554 5.53148 7.61333 5.76265 7.6381 5.83695C7.67938 5.96079 7.83624 6.24975 7.96834 6.43138C8.05915 6.56347 8.00136 6.62952 7.79496 6.61301C7.48124 6.57998 7.06018 6.29102 6.78774 5.91951Z" fill="white" fill-opacity="0.9"/>
	<path d="M12.1784 9.51083C10.5437 8.85036 9.96582 8.2807 9.96582 7.31476C9.96582 7.17441 9.97408 7.05882 9.97408 7.05882C9.98233 7.05882 10.0401 7.10836 10.1144 7.16615C10.4447 7.43034 10.8162 7.54592 11.8482 7.69453C12.4509 7.78534 12.7976 7.85139 13.1113 7.95872C14.1103 8.28896 14.7295 8.96594 14.8781 9.88235C14.9194 10.1465 14.8946 10.6502 14.8286 10.9143C14.7708 11.1207 14.6057 11.5005 14.5644 11.5088C14.5561 11.5088 14.5396 11.4675 14.5396 11.4014C14.5231 11.0547 14.3497 10.7245 14.0608 10.4685C13.714 10.1713 13.2682 9.9484 12.1784 9.51083Z" fill="white" fill-opacity="0.9"/>
	<path d="M11.0222 9.78328C11.0057 9.65944 10.9644 9.50258 10.9397 9.43653L10.8984 9.31269L10.9727 9.40351C11.08 9.52735 11.1626 9.67596 11.2369 9.88235C11.2947 10.0392 11.2947 10.0888 11.2947 10.3447C11.2947 10.5924 11.2864 10.6502 11.2369 10.7905C11.1543 11.0134 11.0553 11.1703 10.8901 11.3437C10.5929 11.6491 10.2049 11.8142 9.65174 11.8885C9.55267 11.8968 9.27197 11.9216 9.02429 11.9381C8.4051 11.9711 7.9923 12.0372 7.62078 12.1692C7.57125 12.1858 7.52171 12.2023 7.51346 12.194C7.49694 12.1775 7.75288 12.0289 7.95928 11.9298C8.24823 11.7895 8.54545 11.7152 9.19767 11.5996C9.51965 11.5501 9.84988 11.484 9.93244 11.451C10.7498 11.195 11.1543 10.5593 11.0222 9.78328Z" fill="white" fill-opacity="0.9"/>
	<path d="M11.7737 11.1125C11.5591 10.6419 11.5096 10.1961 11.6251 9.77503C11.6416 9.73375 11.6582 9.69247 11.6747 9.69247C11.6912 9.69247 11.7407 9.71723 11.7903 9.75026C11.8893 9.81631 12.0957 9.93189 12.6241 10.2208C13.2928 10.5841 13.6726 10.8648 13.9368 11.1868C14.168 11.4675 14.3083 11.7895 14.3744 12.1858C14.4156 12.4087 14.3909 12.9453 14.3331 13.1682C14.1515 13.87 13.7387 14.4314 13.136 14.7534C13.0452 14.8029 12.9709 14.8359 12.9626 14.8359C12.9543 14.8359 12.9874 14.7534 13.0369 14.6543C13.235 14.2332 13.2598 13.8287 13.1112 13.3746C13.0204 13.0939 12.8305 12.7554 12.4507 12.1858C11.9967 11.5253 11.8893 11.3519 11.7737 11.1125Z" fill="white" fill-opacity="0.9"/>
	<path d="M5.62357 13.6388C6.23451 13.1269 6.9858 12.7637 7.6793 12.6481C7.97651 12.5986 8.47187 12.6151 8.74431 12.6894C9.18188 12.805 9.57816 13.0526 9.78456 13.3581C9.9827 13.6553 10.0735 13.9112 10.1643 14.4809C10.1974 14.7038 10.2386 14.935 10.2469 14.9845C10.3129 15.2817 10.445 15.5129 10.6102 15.6367C10.8661 15.8266 11.3119 15.8349 11.7495 15.6698C11.8238 15.645 11.8898 15.6202 11.8898 15.6285C11.9063 15.645 11.6834 15.7936 11.5348 15.8679C11.3284 15.9752 11.1633 16.0083 10.9404 16.0083C10.5441 16.0083 10.2056 15.8019 9.93317 15.3891C9.87538 15.3065 9.75979 15.0671 9.66072 14.8442C9.37176 14.1754 9.22316 13.9773 8.88466 13.7544C8.58745 13.5645 8.20768 13.5232 7.91872 13.6636C7.53895 13.8452 7.43988 14.3323 7.70406 14.6295C7.81139 14.7534 8.00953 14.8524 8.17465 14.8772C8.48012 14.9185 8.74431 14.679 8.74431 14.3736C8.74431 14.1754 8.67001 14.0599 8.47187 13.969C8.20768 13.8535 7.91872 13.9856 7.92698 14.2415C7.92698 14.3488 7.97651 14.4149 8.08384 14.4644C8.14989 14.4974 8.14989 14.4974 8.10035 14.4892C7.86093 14.4396 7.80314 14.1424 7.99302 13.9525C8.22419 13.7214 8.71129 13.8204 8.87641 14.1424C8.94246 14.2745 8.95071 14.5387 8.89292 14.7038C8.75257 15.0671 8.35628 15.257 7.95174 15.1496C7.6793 15.0753 7.56371 15.001 7.23348 14.6625C6.65556 14.0681 6.43265 13.9525 5.60706 13.8287L5.4502 13.8039L5.62357 13.6388Z" fill="white" fill-opacity="0.9"/>
	<path fill-rule="evenodd" clip-rule="evenodd" d="M1.28107 0.355005C3.2047 2.69143 6.16858 6.32405 6.31719 6.52219C6.44103 6.68731 6.39149 6.84417 6.18509 6.95975C6.06951 7.0258 5.83009 7.09185 5.71451 7.09185C5.58241 7.09185 5.42555 7.0258 5.31822 6.91847C5.24392 6.84417 4.92194 6.37358 4.19541 5.24252C3.64227 4.37565 3.17168 3.65738 3.16342 3.64912C3.1304 3.63261 3.1304 3.63261 4.13762 5.4324C4.77333 6.56347 4.97973 6.96801 4.97973 7.01754C4.97973 7.12487 4.9467 7.18266 4.81461 7.33127C4.5917 7.57895 4.49263 7.85965 4.41832 8.44582C4.33576 9.09804 4.11285 9.56037 3.47715 10.3447C3.10563 10.807 3.04784 10.8896 2.95702 11.0795C2.84144 11.3106 2.80842 11.4427 2.7919 11.7399C2.77539 12.0537 2.80842 12.2518 2.89923 12.549C2.98179 12.8132 3.07261 12.9866 3.29552 13.3251C3.4854 13.6223 3.60099 13.8452 3.60099 13.9278C3.60099 13.9938 3.6175 13.9938 3.91471 13.9278C4.62472 13.7626 5.21089 13.4819 5.53288 13.1352C5.73102 12.9205 5.78055 12.805 5.78055 12.5077C5.78055 12.3179 5.7723 12.2766 5.72276 12.161C5.6402 11.9794 5.48334 11.8308 5.14485 11.5996C4.69903 11.2941 4.50914 11.0464 4.4596 10.7162C4.41832 10.4355 4.46786 10.2456 4.71554 9.72549C4.97147 9.18885 5.03752 8.96594 5.0788 8.42105C5.10357 8.0743 5.14485 7.93395 5.24392 7.82663C5.35124 7.71104 5.44206 7.66976 5.69799 7.63674C6.11905 7.57895 6.39149 7.47162 6.60615 7.26522C6.79603 7.09185 6.87859 6.91847 6.88685 6.66254L6.8951 6.47265L6.78778 6.35707C6.39975 5.91125 1.02514 0 1.00037 0C0.992111 0 1.12421 0.156863 1.28107 0.355005ZM3.81564 12.0949C3.90646 11.9381 3.85692 11.7399 3.70831 11.6409C3.56796 11.5501 3.35331 11.5913 3.35331 11.7152C3.35331 11.7482 3.36982 11.7812 3.41936 11.7977C3.49366 11.839 3.50192 11.8803 3.44412 11.9711C3.38633 12.0619 3.38633 12.1445 3.46064 12.2023C3.57622 12.2931 3.73308 12.2436 3.81564 12.0949Z" fill="white" fill-opacity="0.9"/>
	<path fill-rule="evenodd" clip-rule="evenodd" d="M7.15894 7.75232C6.9608 7.81011 6.77091 8.02477 6.71312 8.23942C6.6801 8.37152 6.69661 8.61094 6.7544 8.68524C6.84522 8.80082 6.92777 8.83385 7.15894 8.83385C7.61302 8.83385 8.00105 8.63571 8.04233 8.39628C8.08361 8.19814 7.91023 7.9257 7.67081 7.80186C7.54697 7.73581 7.29104 7.71104 7.15894 7.75232ZM7.68732 8.16512C7.75337 8.06605 7.7286 7.95872 7.60476 7.88442C7.38185 7.74406 7.04336 7.85965 7.04336 8.0743C7.04336 8.18163 7.21673 8.29721 7.38185 8.29721C7.48918 8.29721 7.63779 8.23116 7.68732 8.16512Z" fill="white" fill-opacity="0.9"/>
	</g>
	<defs>
	<clipPath id="clip0_935_298">
	<rect width="16" height="16" fill="white"/>
	</clipPath>
	</defs>
	</svg>
	